<svg xmlns="http://www.w3.org/2000/svg" viewBox="0 0 256 256" role="img" aria-label="POS Icon">
  <defs>
    <linearGradient id="bg" x1="0" y1="0" x2="1" y2="1">
      <stop offset="0%" stop-color="#4f46e5"/>
      <stop offset="100%" stop-color="#1d4ed8"/>
    </linearGradient>
  </defs>
  <rect x="12" y="12" width="232" height="232" rx="40" fill="url(#bg)"/>
  <rect x="46" y="54" width="164" height="148" rx="14" fill="#ffffff" opacity="0.95"/>
  <rect x="58" y="68" width="140" height="28" rx="6" fill="#e2e8f0"/>
  <circle cx="74" cy="82" r="5" fill="#22c55e"/>
  <circle cx="90" cy="82" r="5" fill="#f59e0b"/>
  <circle cx="106" cy="82" r="5" fill="#ef4444"/>
  <rect x="62" y="106" width="132" height="10" rx="5" fill="#cbd5e1"/>
  <rect x="62" y="122" width="86" height="10" rx="5" fill="#cbd5e1"/>
  <rect x="62" y="138" width="110" height="10" rx="5" fill="#cbd5e1"/>
  <rect x="62" y="154" width="74" height="10" rx="5" fill="#cbd5e1"/>
  <rect x="58" y="182" width="140" height="12" rx="6" fill="#1d4ed8"/>
  <path d="M176 224h-96a8 8 0 0 1 0-16h96a8 8 0 0 1 0 16z" fill="#93c5fd"/>
</svg>
